<svg xmlns="http://www.w3.org/2000/svg" xmlns:xlink="http://www.w3.org/1999/xlink" version="1.1" x="0px" y="0px" viewBox="0 0 100 125" enable-background="new 0 0 100 100" xml:space="preserve"><path fill="white" d="M86.653,93.944H18.284c-0.035,0-0.07-0.001-0.104-0.003c-0.227-0.014-5.58-0.411-8.672-7.267  c-0.734-1.625-0.93-4.683-0.961-5.28L8.544,15.347c0-5.123,4.329-9.291,9.65-9.291h64.06c0.066,0,0.132,0.004,0.197,0.011  c2.809,0.319,4.695,2.245,4.695,4.791c0,0.249-0.053,0.495-0.155,0.722c-0.01,0.021-1.116,2.529-1.116,5.379  c0,2.313,0.347,3.758,0.621,4.539h0.157c2.738,0,4.803,2.064,4.803,4.802v62.484C91.456,91.629,89.302,93.944,86.653,93.944z   M27.024,90.444h59.629c0.779,0,1.303-0.859,1.303-1.661V26.299c0-0.815-0.487-1.302-1.303-1.302h-1c-0.15,0.02-0.303,0.019-0.449,0  h-58.18V90.444z M18.37,90.444h5.154V24.997h-5.33c-2.313,0-4.467-0.864-6.15-2.28v58.584c0.063,1.12,0.31,3.172,0.653,3.933  C14.774,89.838,17.941,90.39,18.37,90.444z M18.194,9.556c-3.392,0-6.15,2.598-6.15,5.791c0,3.276,2.874,6.15,6.15,6.15H82.85  c-0.269-1.118-0.475-2.606-0.475-4.539c0-2.868,0.855-5.384,1.242-6.376c-0.158-0.719-0.937-0.952-1.473-1.026H18.194z   M76.565,84.576c-0.827,0-1.622-0.377-2.37-1.126l-9.976-9.976c-0.18-0.179-0.318-0.396-0.405-0.634l-0.888-2.417l-4.094-4.006  c-2.673,1.498-5.735,2.256-9.124,2.256c-0.001,0-0.002,0-0.003,0c-5.161,0-10.02-2.009-13.682-5.656  c-3.666-3.653-5.686-8.504-5.686-13.662c0-5.167,2.012-10.024,5.665-13.677s8.511-5.665,13.676-5.665c0.001,0,0.001,0,0.002,0  c5.159,0,10.016,2.013,13.674,5.667c3.659,3.656,5.675,8.511,5.674,13.669c0.001,3.292-0.794,6.484-2.259,9.138l4.025,3.946  l2.571,0.915c0.244,0.087,0.467,0.228,0.65,0.412l9.934,9.934c1.117,1.117,1.702,3.197-1.858,6.757l-2.404,2.404  c-0.833,0.833-1.571,1.432-2.466,1.643C77.002,84.55,76.782,84.576,76.565,84.576z M66.967,71.272l9.656,9.656  c0.132-0.108,0.321-0.279,0.591-0.548l2.404-2.404c1.021-1.021,1.453-1.719,1.603-2.063l-9.398-9.398l-2.563-0.912  c-0.239-0.085-0.457-0.222-0.639-0.399l-4.016-3.938c-0.898,0.928-2.053,2.078-2.989,2.978l4.042,3.955  c0.187,0.182,0.329,0.403,0.419,0.648L66.967,71.272z M49.68,33.513c-4.23,0-8.209,1.648-11.201,4.64  c-2.992,2.993-4.64,6.971-4.64,11.203c0,4.22,1.653,8.191,4.655,11.182c3.002,2.99,6.983,4.636,11.212,4.636  c0.001,0,0.002,0,0.003,0c3.191,0,6.07-0.708,8.354-2.389c0.547-0.403,4.371-4.149,5.029-5.006c0.037-0.049,0.074-0.097,0.111-0.147  c1.628-2.187,2.327-5.21,2.326-8.281c0-4.224-1.65-8.199-4.647-11.194c-2.998-2.995-6.975-4.644-11.2-4.644  C49.682,33.513,49.681,33.513,49.68,33.513z M40.036,50.908c-0.967,0-1.75-0.784-1.75-1.75c0-5.958,4.848-10.806,10.807-10.806  c0.967,0,1.75,0.784,1.75,1.75s-0.783,1.75-1.75,1.75c-4.029,0-7.307,3.277-7.307,7.306C41.786,50.124,41.003,50.908,40.036,50.908z  "/><!--<text x="0" y="115" fill="#000000" font-size="5px" font-weight="bold" font-family="'Helvetica Neue', Helvetica, Arial-Unicode, Arial, Sans-serif">Created by H Alberto Gongora</text><text x="0" y="120" fill="#000000" font-size="5px" font-weight="bold" font-family="'Helvetica Neue', Helvetica, Arial-Unicode, Arial, Sans-serif">from the Noun Project</text>--></svg>